<svg xmlns="http://www.w3.org/2000/svg" width="880" height="226" aria-label="Kamp Quiz Motoru - konsolda calisan bilgi yarismasi" role="img" viewBox="0 0 880 226"><style>.mono{font-family:ui-monospace,SFMono-Regular,Menlo,Consolas,&quot;Liberation Mono&quot;,monospace}.title{font-size:34px;font-weight:700;letter-spacing:1px;fill:#e6edf3}.sub{font-size:14px;fill:#8b949e}.cmd{font-size:15px;fill:#3fb950}.chip{font-size:12px;fill:#adbac7}.cursor{fill:#3fb950}</style><rect width="879" height="225" x=".5" y=".5" fill="#0d1117" stroke="#30363d" rx="10"/><circle cx="28" cy="24" r="5.5" fill="#ff5f57"/><circle cx="48" cy="24" r="5.5" fill="#febc2e"/><circle cx="68" cy="24" r="5.5" fill="#28c840"/><text x="440" y="28" class="mono sub" font-size="12" text-anchor="middle">kamp-quiz — bash</text><line x1="1" x2="879" y1="48" y2="48" stroke="#30363d"/><text x="32" y="103" class="mono title">KAMP QUIZ MOTORU</text><text x="32" y="128" class="mono sub">Terminalde ya da tarayıcıda. Aynı Wi-Fi&apos;daki herkes telefonundan katılır.</text><text x="32" y="162" class="mono cmd">$ ./run.sh</text><rect width="9" height="16" x="121" y="150" class="cursor" opacity=".85"/><g class="mono chip"><rect width="96" height="26" x="32" y="182" fill="#161b22" stroke="#30363d" rx="13"/><text x="80" y="199" text-anchor="middle">81 soru</text><rect width="112" height="26" x="138" y="182" fill="#161b22" stroke="#30363d" rx="13"/><text x="194" y="199" text-anchor="middle">7 kategori</text><rect width="106" height="26" x="260" y="182" fill="#161b22" stroke="#30363d" rx="13"/><text x="313" y="199" text-anchor="middle">Java 17+</text><rect width="150" height="26" x="376" y="182" fill="#161b22" stroke="#30363d" rx="13"/><text x="451" y="199" text-anchor="middle">sıfır bağımlılık</text><rect width="164" height="26" x="536" y="182" fill="#161b22" stroke="#30363d" rx="13"/><text x="618" y="199" text-anchor="middle">web modu</text></g><g class="mono" opacity=".9"><rect width="248" height="98" x="600" y="64" fill="#161b22" stroke="#30363d" rx="6"/><text x="616" y="86" fill="#8b949e" font-size="11">Soru 3/10 [Ağ Temelleri]</text><text x="616" y="106" fill="#e6edf3" font-size="12">HTTPS hangi portu kullanır?</text><text x="616" y="126" fill="#8b949e" font-size="11">1) 80 2) 443</text><text x="616" y="144" fill="#8b949e" font-size="11">3) 8080 4) 22</text><text x="700" y="144" fill="#3fb950" font-size="11" opacity="0">.</text></g></svg>