<svg xmlns="http://www.w3.org/2000/svg" width="880" height="300" aria-label="Nasıl çalışır: hoca sunucuyu başlatır, telefonlar aynı Wi-Fi üzerinden katılır, projeksiyonda canlı sıralama döner" role="img" viewBox="0 0 880 300"><style>.m{font-family:ui-monospace,SFMono-Regular,Menlo,Consolas,&quot;Liberation Mono&quot;,monospace}.s{font-family:system-ui,-apple-system,&quot;Segoe UI&quot;,Roboto,Arial,sans-serif}.head,.step{font-weight:700}.step{font-size:11px;letter-spacing:1.4px;fill:#58a6ff}.head{font-size:15px;fill:#e6edf3}.note{font-size:11.5px;fill:#8b949e}.tiny{font-size:10px;fill:#6e7681}</style><defs><marker id="a" markerHeight="7" markerWidth="7" orient="auto-start-reverse" refX="9" refY="5" viewBox="0 0 10 10"><path fill="#3d4b55" d="M0 0 L10 5 L0 10 z"/></marker></defs><rect width="879" height="299" x=".5" y=".5" fill="#0d1117" stroke="#30363d" rx="10"/><g transform="translate(40,58)"><text x="0" y="0" class="m step">1 · HOCA</text><rect width="216" height="128" x="0" y="14" fill="#161b22" stroke="#30363d" rx="9"/><rect width="180" height="72" x="18" y="34" fill="#0d1117" stroke="#37464f" rx="5"/><text x="30" y="56" fill="#3fb950" class="m" font-size="11">$ ./run.sh web</text><text x="30" y="74" fill="#8b949e" class="m" font-size="10">Aynı Wi-Fi&apos;dan:</text><text x="30" y="90" fill="#58a6ff" class="m" font-size="10.5">192.168.1.42:8080</text><rect width="76" height="7" x="70" y="114" fill="#21262d" rx="3"/><text x="0" y="168" class="s head">Laptop sunucu olur</text><text x="0" y="188" class="s note">Bir test seçer, 4 haneli</text><text x="0" y="204" class="s note">oda kodu üretilir.</text></g><line x1="272" x2="316" y1="130" y2="130" stroke="#3d4b55" stroke-width="2" marker-end="url(#a)"/><g transform="translate(332,58)"><text x="0" y="0" class="m step">2 · SINIF</text><rect width="56" height="100" x="0" y="14" fill="#161b22" stroke="#30363d" rx="8"/><rect width="40" height="70" x="8" y="26" fill="#0d1117" stroke="#37464f" rx="4"/><rect width="28" height="7" x="14" y="34" fill="#1f6feb" rx="2"/><rect width="28" height="7" x="14" y="46" fill="#21262d" rx="2"/><rect width="28" height="7" x="14" y="58" fill="#21262d" rx="2"/><rect width="28" height="9" x="14" y="72" fill="#238636" rx="3"/><rect width="56" height="100" x="66" y="14" fill="#161b22" stroke="#30363d" rx="8"/><rect width="40" height="70" x="74" y="26" fill="#0d1117" stroke="#37464f" rx="4"/><rect width="28" height="7" x="80" y="34" fill="#21262d" rx="2"/><rect width="28" height="7" x="80" y="46" fill="#1f6feb" rx="2"/><rect width="28" height="7" x="80" y="58" fill="#21262d" rx="2"/><rect width="28" height="9" x="80" y="72" fill="#238636" rx="3"/><rect width="56" height="100" x="132" y="14" fill="#161b22" stroke="#30363d" rx="8"/><rect width="40" height="70" x="140" y="26" fill="#0d1117" stroke="#37464f" rx="4"/><rect width="28" height="7" x="146" y="34" fill="#21262d" rx="2"/><rect width="28" height="7" x="146" y="46" fill="#21262d" rx="2"/><rect width="28" height="7" x="146" y="58" fill="#1f6feb" rx="2"/><rect width="28" height="9" x="146" y="72" fill="#238636" rx="3"/><text x="196" y="70" class="m tiny">+ 22</text><text x="0" y="168" class="s head">Telefondan katılır</text><text x="0" y="188" class="s note">QR okutur ya da kodu yazar.</text><text x="0" y="204" class="s note">Herkesin soruları farklı sırada.</text></g><line x1="560" x2="604" y1="130" y2="130" stroke="#3d4b55" stroke-width="2" marker-end="url(#a)"/><g transform="translate(620,58)"><text x="0" y="0" class="m step">3 · PERDE</text><rect width="220" height="128" x="0" y="14" fill="#161b22" stroke="#30363d" rx="9"/><rect width="192" height="20" x="14" y="28" fill="#0d1117" stroke="#37464f" rx="4"/><text x="22" y="42" fill="#ffc800" class="m" font-size="9.5">1</text><text x="38" y="42" fill="#e6edf3" class="s" font-size="10">Ayşe</text><text x="182" y="42" fill="#3fb950" class="m" font-size="10" text-anchor="end">5994</text><rect width="192" height="20" x="14" y="53" fill="#0d1117" stroke="#37464f" rx="4"/><text x="22" y="67" fill="#8b949e" class="m" font-size="9.5">2</text><text x="38" y="67" fill="#e6edf3" class="s" font-size="10">Deniz</text><text x="182" y="67" fill="#3fb950" class="m" font-size="10" text-anchor="end">4995</text><rect width="192" height="20" x="14" y="78" fill="#0d1117" stroke="#37464f" rx="4"/><text x="22" y="92" fill="#8b949e" class="m" font-size="9.5">3</text><text x="38" y="92" fill="#e6edf3" class="s" font-size="10">Mert</text><text x="182" y="92" fill="#3fb950" class="m" font-size="10" text-anchor="end">3996</text><text x="14" y="118" class="m tiny">3 saniyede bir yenilenir</text><text x="0" y="168" class="s head">Canlı sıralama</text><text x="0" y="188" class="s note">Test bitince en çok yanlış</text><text x="0" y="204" class="s note">yapılan sorular raporlanır.</text></g><text x="40" y="282" class="m tiny">İnternet gerekmez — trafiğin tamamı yerel ağda kalır.</text></svg>